# xmcd CD database file
#
# Track frame offsets:
#	150
#	15460
#	27834
#	43153
#	55971
#	68744
#	85084
#	100026
#	113021
#	125821
#	140268
#	156507
#	169221
#	185137
#	200464
#	214773
#	230497
#	243604
#	251015
#	258883
#
# Disc length: 3633 seconds
#
# Revision: 0
# Processed by: cddbd v1.5.2PL0 Copyright (c) Steve Scherf et al.
# Submitted via: CDex 1.51
#
DISCID=1e0e2f14
DTITLE=Billie Holiday - 20 super sucessos
DYEAR=2000
DGENRE=Jazz
TTITLE0=Blue Moon
TTITLE1=Love For sale
TTITLE2=Strange Fruit
TTITLE3=He's Funny That Way
TTITLE4=Howw Deep is the Ocean
TTITLE5=Stormy Weather
TTITLE6=Solitude
TTITLE7=These Foolis Things (Remind Me Of You)
TTITLE8=East of The Sun
TTITLE9=Yesterda'y's
TTITLE10=You Go To My Head
TTITLE11=Miss Brown To You
TTITLE12=Autumn In New York
TTITLE13=Loverman
TTITLE14=My Man
TTITLE15=Them There Eys
TTITLE16=I Only Have Eyes For You
TTITLE17=Do Nothing Till You Hear From Me
TTITLE18=Tenderly
TTITLE19=Fine And Mellow
EXTD=YEAR: 2000
EXTT0=
EXTT1=
EXTT2=
EXTT3=
EXTT4=
EXTT5=
EXTT6=
EXTT7=
EXTT8=
EXTT9=
EXTT10=
EXTT11=
EXTT12=
EXTT13=
EXTT14=
EXTT15=
EXTT16=
EXTT17=
EXTT18=
EXTT19=
PLAYORDER=
